#N canvas 992 231 848 599 10;
#X text 31 27 an experiment;
#X obj 97 319 noteout 1;
#X obj 97 276 makenote 64 250;
#X msg 97 246 64;
#X msg 162 245 71;
#X obj 32 319 print;
#X obj 97 215 t b b;
#X obj 97 191 bng 15 250 50 0 empty empty empty 17 7 0 10 -262144 -1
-1;
#X connect 2 0 1 0;
#X connect 2 0 5 0;
#X connect 2 1 1 1;
#X connect 2 1 5 0;
#X connect 3 0 2 0;
#X connect 4 0 2 0;
#X connect 6 0 3 0;
#X connect 6 1 4 0;
#X connect 7 0 6 0;
