#N canvas 2200 62 1076 1018 10;
#X obj 313 193 adc~;
#X msg 429 51 \; pd dsp \$1;
#X obj 429 20 tgl 15 0 empty empty empty 17 7 0 10 -258113 -1 -1 0
1;
#X obj 424 281 nbx 5 14 -1e+37 1e+37 0 0 empty empty empty 0 -8 0 10
-262130 -1 -1 20480 256;
#X obj 397 239 timer 1 samp;
#X obj 352 208 t b b;
#X obj 396 208 t a b;
#X obj 351 158 tgl 15 0 empty empty empty 17 7 0 10 -4034 -1 -1 0 1
;
#X obj 374 459 dac~;
#X obj 372 350 tgl 15 0 empty empty empty 17 7 0 10 -4032 -1 -1 0 1
;
#X obj 461 460 s again;
#X obj 312 349 r again;
#X obj 372 371 sel 1;
#X msg 372 395 bang;
#X msg 415 395 stop;
#X obj 99 78 t b b;
#X obj 34 361 dac~;
#X obj 74 56 bng 15 250 50 0 empty empty empty 17 7 0 10 -262144 -1
-1;
#X obj 312 281 tabwrite~ loop;
#X obj 373 421 tabplay~ loop;
#X obj 99 106 samplerate~;
#X obj 112 133 /;
#X obj 34 219 phasor~;
#X obj 34 256 *~;
#X obj 177 117 t f f;
#X obj 34 278 tabread4~ loop;
#X obj 177 95 arraysize loop;
#X msg 34 78 0;
#X obj 34 56 bng 15 250 50 0 empty empty empty 17 7 0 10 -262144 -1
-1;
#X obj 352 180 bangstop;
#X obj 33 7 tgl 15 0 empty empty empty 17 7 0 10 -159808 -1 -1 0 1
;
#X obj 33 30 sel 0;
#X obj 35 391 table loop 22050;
#X obj 34 413 table smoothing 22050;
#X obj 144 256 *~ 22050;
#X obj 144 278 tabread4~ smoothing;
#X obj 33 311 *~;
#X obj 33 330 *~ 0.2;
#X obj 278 14 tgl 15 0 empty empty empty 17 7 0 10 -261234 -1 -1 0
1;
#X obj 305 57 bng 15 250 50 0 empty empty empty 17 7 0 10 -262144 -1
-1;
#X text 299 12 reverse;
#X obj 278 32 sel 0;
#X obj 65 190 *;
#X msg 277 81 1;
#X msg 306 81 -1;
#X msg 67 78 1;
#X obj 64 157 *;
#X obj 125 209 nbx 5 14 -1e+37 1e+37 0 0 empty empty empty 0 -8 0 10
-262130 -1 -1 0 256;
#X text 181 206 playing && reverse;
#X obj 264 143 nbx 5 14 -1e+37 1e+37 0 0 empty empty empty 0 -8 0 10
-262144 -1 -1 1 256;
#X obj 212 32 loadbang;
#X obj 277 57 bng 15 250 50 0 empty empty empty 17 7 0 10 -262144 -1
-1;
#X connect 0 0 18 0;
#X connect 2 0 1 0;
#X connect 4 0 3 0;
#X connect 5 0 18 0;
#X connect 5 1 4 0;
#X connect 6 0 18 0;
#X connect 6 1 4 1;
#X connect 7 0 29 0;
#X connect 9 0 12 0;
#X connect 11 0 13 0;
#X connect 12 0 13 0;
#X connect 12 1 14 0;
#X connect 13 0 19 0;
#X connect 14 0 19 0;
#X connect 15 0 20 0;
#X connect 15 1 26 0;
#X connect 17 0 15 0;
#X connect 17 0 45 0;
#X connect 17 0 49 0;
#X connect 19 0 8 0;
#X connect 19 0 8 1;
#X connect 19 1 10 0;
#X connect 20 0 21 0;
#X connect 21 0 42 1;
#X connect 22 0 23 0;
#X connect 22 0 34 0;
#X connect 23 0 25 0;
#X connect 24 0 21 1;
#X connect 24 1 23 1;
#X connect 25 0 36 0;
#X connect 26 0 24 0;
#X connect 27 0 22 0;
#X connect 27 0 46 0;
#X connect 28 0 27 0;
#X connect 29 0 5 0;
#X connect 29 1 6 0;
#X connect 30 0 31 0;
#X connect 31 0 28 0;
#X connect 31 1 17 0;
#X connect 34 0 35 0;
#X connect 35 0 36 1;
#X connect 36 0 37 0;
#X connect 37 0 16 0;
#X connect 38 0 41 0;
#X connect 39 0 44 0;
#X connect 41 0 51 0;
#X connect 41 1 39 0;
#X connect 42 0 22 0;
#X connect 43 0 49 0;
#X connect 44 0 49 0;
#X connect 45 0 46 0;
#X connect 46 0 47 0;
#X connect 46 0 42 0;
#X connect 49 0 46 1;
#X connect 50 0 43 0;
#X connect 51 0 43 0;
