#N canvas 2210 60 1076 1020 10;
#X obj 313 188 adc~;
#X msg 429 51 \; pd dsp \$1;
#X obj 429 20 tgl 15 0 empty empty empty 17 7 0 10 -258113 -1 -1 0
1;
#X obj 424 281 nbx 5 14 -1e+37 1e+37 0 0 empty empty empty 0 -8 0 10
-262130 -1 -1 116736 256;
#X obj 397 239 timer 1 samp;
#X obj 352 208 t b b;
#X obj 396 208 t a b;
#X obj 351 158 tgl 15 0 empty empty empty 17 7 0 10 -4034 -1 -1 1 1
;
#X obj 374 459 dac~;
#X obj 372 350 tgl 15 0 empty empty empty 17 7 0 10 -4032 -1 -1 0 1
;
#X obj 461 460 s again;
#X obj 312 349 r again;
#X obj 372 371 sel 1;
#X msg 372 395 bang;
#X msg 415 395 stop;
#X obj 75 103 t b b;
#X obj 35 316 dac~;
#X obj 75 81 bng 15 250 50 0 empty empty empty 17 7 0 10 -262144 -1
-1;
#X obj 312 281 tabwrite~ loop;
#X obj 373 421 tabplay~ loop;
#X obj 75 131 samplerate~;
#X obj 75 159 /;
#X obj 34 189 phasor~;
#X obj 34 211 *~;
#X obj 153 142 t f f;
#X obj 34 233 tabread4~ loop;
#X obj 153 120 arraysize loop;
#X msg 35 103 0;
#X obj 35 81 bng 15 250 50 0 empty empty empty 17 7 0 10 -262144 -1
-1;
#X obj 352 180 bangstop;
#X obj 34 33 tgl 15 0 empty empty empty 17 7 0 10 -159808 -1 -1 1 1
;
#X obj 34 55 sel 0;
#X obj 35 376 table loop 22050;
#X connect 0 0 18 0;
#X connect 2 0 1 0;
#X connect 4 0 3 0;
#X connect 5 0 18 0;
#X connect 5 1 4 0;
#X connect 6 0 18 0;
#X connect 6 1 4 1;
#X connect 7 0 29 0;
#X connect 9 0 12 0;
#X connect 11 0 13 0;
#X connect 12 0 13 0;
#X connect 12 1 14 0;
#X connect 13 0 19 0;
#X connect 14 0 19 0;
#X connect 15 0 20 0;
#X connect 15 1 26 0;
#X connect 17 0 15 0;
#X connect 19 0 8 0;
#X connect 19 0 8 1;
#X connect 19 1 10 0;
#X connect 20 0 21 0;
#X connect 21 0 22 0;
#X connect 22 0 23 0;
#X connect 23 0 25 0;
#X connect 24 0 21 1;
#X connect 24 1 23 1;
#X connect 25 0 16 0;
#X connect 26 0 24 0;
#X connect 27 0 22 0;
#X connect 28 0 27 0;
#X connect 29 0 5 0;
#X connect 29 1 6 0;
#X connect 30 0 31 0;
#X connect 31 0 28 0;
#X connect 31 1 17 0;
