#N canvas 2190 62 1076 1018 10;
#X obj 334 389 adc~;
#X msg 36 471 \; pd dsp \$1;
#X obj 36 440 tgl 15 0 empty empty empty 17 7 0 10 -258113 -1 -1 0
1;
#X obj 445 477 nbx 5 14 -1e+37 1e+37 0 0 empty empty empty 0 -8 0 10
-262130 -1 -1 54272 256;
#X obj 418 435 timer 1 samp;
#X obj 373 404 t b b;
#X obj 417 404 t a b;
#X obj 372 354 tgl 15 0 empty empty empty 17 7 0 10 -4034 -1 -1 0 1
;
#X obj 261 103 t b b;
#X obj 34 361 dac~;
#X obj 74 56 bng 15 250 50 0 empty empty empty 17 7 0 10 -262144 -1
-1;
#X obj 333 477 tabwrite~ loop;
#X obj 261 131 samplerate~;
#X obj 274 158 /;
#X obj 34 219 phasor~;
#X obj 34 256 *~;
#X obj 339 142 t f f;
#X obj 34 278 tabread4~ loop;
#X obj 339 120 arraysize loop;
#X msg 34 78 0;
#X obj 34 56 bng 15 250 50 0 empty empty empty 17 7 0 10 -262144 -1
-1;
#X obj 373 376 bangstop;
#X obj 33 7 tgl 15 0 empty empty empty 17 7 0 10 -159808 -1 -1 0 1
;
#X obj 33 30 sel 0;
#X obj 35 391 table loop 22050;
#X obj 34 413 table smoothing 22050;
#X obj 144 256 *~ 22050;
#X obj 144 278 tabread4~ smoothing;
#X obj 33 311 *~;
#X obj 33 330 *~ 0.2;
#X obj 141 18 tgl 15 0 empty empty empty 17 7 0 10 -261234 -1 -1 0
1;
#X text 162 16 reverse;
#X obj 55 195 *;
#X msg 67 78 1;
#X obj 134 448 tgl 15 0 empty empty empty 17 7 0 10 -4032 -1 -1 0 1
;
#N canvas 0 401 1101 617 playpause 0;
#X obj 28 193 dac~;
#X obj 28 64 tgl 15 0 empty empty empty 17 7 0 10 -4032 -1 -1 0 1;
#X obj 28 87 sel 1;
#X msg 28 116 bang;
#X msg 114 116 stop;
#X obj 27 146 tabplay~ loop;
#X obj 28 36 inlet;
#X text 21 8 simple play/pause module for quick checks;
#X connect 1 0 2 0;
#X connect 2 0 3 0;
#X connect 2 1 4 0;
#X connect 3 0 5 0;
#X connect 4 0 5 0;
#X connect 5 0 0 0;
#X connect 5 0 0 1;
#X connect 5 1 3 0;
#X connect 6 0 1 0;
#X restore 134 478 pd playpause;
#N canvas 0 428 709 594 reverse-play 1;
#X obj 151 64 tgl 15 0 empty empty empty 17 7 0 10 -262144 -1 -1 0
1;
#X obj 181 128 bng 15 250 50 0 empty empty empty 17 7 0 10 -262144
-1 -1;
#X obj 151 93 sel 0;
#X msg 152 166 1;
#X msg 182 166 -1;
#X obj 80 126 loadbang;
#X obj 152 128 bng 15 250 50 0 empty empty empty 17 7 0 10 -262144
-1 -1;
#X text 11 6 reverse module;
#X obj 151 35 inlet;
#X obj 16 268 outlet;
#X text 203 127 bang on toggle event;
#X obj 16 35 inlet;
#X obj 17 206 nbx 5 14 -1e+37 1e+37 0 0 empty empty empty 0 -8 0 10
-262144 -1 -1 0 256;
#X text 55 34 playing?;
#X obj 79 246 nbx 5 14 -1e+37 1e+37 0 0 empty empty empty 0 -8 0 10
-262130 -1 -1 0 256;
#X obj 17 229 *;
#X obj 80 206 nbx 5 14 -1e+37 1e+37 0 0 empty empty empty 0 -8 0 10
-262144 -1 -1 1 256;
#X text 190 34 reverse setting toggle;
#X text 168 226 outputs: 0 if not playing -1 if playing in reverse
1 if playing forward;
#X connect 0 0 2 0;
#X connect 1 0 4 0;
#X connect 1 0 12 0;
#X connect 2 0 6 0;
#X connect 2 1 1 0;
#X connect 3 0 16 0;
#X connect 4 0 16 0;
#X connect 5 0 3 0;
#X connect 6 0 3 0;
#X connect 6 0 12 0;
#X connect 8 0 0 0;
#X connect 11 0 12 0;
#X connect 12 0 15 0;
#X connect 15 0 14 0;
#X connect 15 0 9 0;
#X connect 16 0 15 1;
#X restore 54 129 pd reverse-play;
#X text 309 88 calculate phasor freq;
#X connect 0 0 11 0;
#X connect 2 0 1 0;
#X connect 4 0 3 0;
#X connect 5 0 11 0;
#X connect 5 1 4 0;
#X connect 6 0 11 0;
#X connect 6 1 4 1;
#X connect 7 0 21 0;
#X connect 8 0 12 0;
#X connect 8 1 18 0;
#X connect 10 0 8 0;
#X connect 10 0 33 0;
#X connect 12 0 13 0;
#X connect 13 0 32 1;
#X connect 14 0 15 0;
#X connect 14 0 26 0;
#X connect 15 0 17 0;
#X connect 16 0 13 1;
#X connect 16 1 15 1;
#X connect 17 0 28 0;
#X connect 18 0 16 0;
#X connect 19 0 14 0;
#X connect 19 0 36 0;
#X connect 20 0 19 0;
#X connect 21 0 5 0;
#X connect 21 1 6 0;
#X connect 22 0 23 0;
#X connect 23 0 20 0;
#X connect 23 1 10 0;
#X connect 26 0 27 0;
#X connect 27 0 28 1;
#X connect 28 0 29 0;
#X connect 29 0 9 0;
#X connect 30 0 36 1;
#X connect 32 0 14 0;
#X connect 33 0 36 0;
#X connect 34 0 35 0;
#X connect 36 0 32 0;
