#N canvas 1024 194 874 623 10;
#X obj 130 305 metro;
#X msg 156 168 60000;
#X floatatom 229 170 5 0 0 0 - - -, f 5;
#X obj 129 88 bng 15 250 50 0 empty empty empty 17 7 0 10 -262144 -1
-1;
#X obj 129 131 t b b b;
#X obj 156 249 i;
#X obj 157 204 /;
#X floatatom 234 266 5 0 0 0 - - -, f 5;
#X floatatom 233 221 5 0 0 0 - - -, f 5;
#X msg 85 87 0;
#X obj 238 89 loadbang;
#X msg 238 125 60;
#X obj 130 378 i;
#X obj 188 378 + 1;
#X floatatom 81 333 5 0 0 0 - - -, f 5;
#X floatatom 130 420 5 0 0 0 - - -, f 5;
#X obj 130 460 % 8;
#X floatatom 130 505 5 0 0 0 - - -, f 5;
#X msg 187 344 0;
#X text 76 25 Pure Data tutorial #4 Metro https://www.youtube.com/watch?v=7ucJoMEjqZI
;
#X connect 0 0 12 0;
#X connect 0 0 14 0;
#X connect 1 0 6 0;
#X connect 2 0 6 1;
#X connect 3 0 4 0;
#X connect 4 0 0 0;
#X connect 4 1 1 0;
#X connect 4 2 2 0;
#X connect 5 0 7 0;
#X connect 5 0 0 1;
#X connect 6 0 8 0;
#X connect 6 0 5 0;
#X connect 9 0 0 0;
#X connect 10 0 11 0;
#X connect 11 0 2 0;
#X connect 12 0 13 0;
#X connect 12 0 15 0;
#X connect 13 0 12 1;
#X connect 15 0 16 0;
#X connect 16 0 17 0;
#X connect 18 0 12 1;
