#N canvas 950 89 960 991 10;
#X obj 189 209 soundfiler;
#N canvas 0 50 450 250 (subpatch) 0;
#X array sample 1.7505e+06 float 2;
#X coords 0 1 1.7505e+06 -1 200 140 1;
#X restore 195 288 graph;
#X obj 187 162 bng 15 250 50 0 empty empty empty 17 7 0 10 -262144
-1 -1;
#X msg 189 189 read -resize ./glitchy-guitar.wav sample;
#X obj 93 192 / 44100;
#X obj 93 212 pow -1;
#X obj 82 259 sig~;
#X obj 82 288 phasor~;
#X obj 82 315 *~;
#X obj 82 339 tabread4~ sample;
#X obj 82 364 dac~;
#X obj 190 239 nbx 5 14 -1e+37 1e+37 0 0 empty empty empty 0 -8 0 10
-262144 -1 -1 1.7505e+06 256;
#X obj 153 126 bng 15 250 50 0 empty empty empty 17 7 0 10 -262144
-1 -1;
#X obj 19 208 nbx 5 14 -1e+37 1e+37 0 0 empty empty empty 0 -8 0 10
-262144 -1 -1 0 256;
#X obj 20 179 bng 15 250 50 0 empty empty empty 17 7 0 10 -262144 -1
-1;
#X obj 83 235 nbx 5 14 -1e+37 1e+37 0 0 empty empty empty 0 -8 0 10
-262144 -1 -1 0.0255906 256;
#X obj 75 106 *;
#X msg 48 76 0.025;
#X obj 109 79 hsl 128 15 0 2.5 0 0 empty empty empty -2 -8 0 10 -262144
-1 -1 5250 1;
#X obj 50 49 metro 100;
#X obj 50 25 bng 15 250 50 0 empty empty empty 17 7 0 10 -262144 -1
-1;
#X obj 101 22 nbx 5 14 -1e+37 1e+37 0 0 empty empty empty 0 -8 0 10
-262144 -1 -1 0 256;
#X connect 0 0 11 0;
#X connect 2 0 3 0;
#X connect 3 0 0 0;
#X connect 4 0 5 0;
#X connect 5 0 15 0;
#X connect 6 0 7 0;
#X connect 7 0 8 0;
#X connect 8 0 9 0;
#X connect 9 0 10 0;
#X connect 11 0 8 1;
#X connect 11 0 4 0;
#X connect 12 0 11 0;
#X connect 13 0 15 0;
#X connect 14 0 13 0;
#X connect 15 0 6 0;
#X connect 16 0 15 0;
#X connect 17 0 16 0;
#X connect 18 0 16 1;
#X connect 19 0 17 0;
#X connect 20 0 19 0;
#X connect 21 0 19 1;
